<svg width="250" height="250" viewBox="0 0 250 250" fill="none" xmlns="http://www.w3.org/2000/svg">
<rect x="10" y="10" width="230" height="230" rx="50" fill="#0D1033"/>
<path d="M75.9583 45L55.4167 96.1175L76.3611 122.683L96.5 129.927L96.9028 132.342L84.8194 142.003L84.4167 146.028L92.0694 157.298L116.236 156.895L124.694 147.235V137.173L111 131.135L109.389 128.317L102.542 101.752L86.0278 98.13L67.0972 79.615L108.181 92.8975L115.431 116.243H137.986L145.236 92.8975L186.319 79.615L166.986 98.5325L150.875 101.752L144.028 128.317L142.417 131.135L128.722 137.173L128.319 147.235L136.778 156.895L161.347 157.298L169 146.028L168.597 142.003L156.514 132.342L156.917 129.927L176.653 123.085L198 96.1175L177.458 45L126.708 59.49L75.9583 45Z" fill="#75D0ED"/>
<path d="M100.528 166.153L126.708 156.493L154.097 166.153L154.5 188.693L129.528 204.39H125.903L100.528 188.693V166.153Z" fill="#75D0ED"/>
<path d="M73.5417 46.61L53 97.7275L73.9444 124.292L94.0833 131.537L94.4861 133.952L82.4028 143.612L82 147.637L89.6528 158.907L113.819 158.505L122.278 148.845V138.782L108.583 132.745L106.972 129.927L100.125 103.362L83.6111 99.74L64.6806 81.225L105.764 94.5075L113.014 117.852H135.569L142.819 94.5075L183.903 81.225L164.569 100.142L148.458 103.362L141.611 129.927L140 132.745L126.306 138.782L125.903 148.845L134.361 158.505L158.931 158.907L166.583 147.637L166.181 143.612L154.097 133.952L154.5 131.537L174.236 124.695L195.583 97.7275L175.042 46.61L124.292 61.1L73.5417 46.61Z" fill="white"/>
<path d="M98.1111 167.762L124.292 158.102L151.681 167.762L152.083 190.302L127.111 206H123.486L98.1111 190.302V167.762Z" fill="white"/>
</svg>
