<svg width="60" height="67" viewBox="0 0 60 67" fill="none" xmlns="http://www.w3.org/2000/svg">
<path d="M9.5 0L1 21.2725L9.66667 32.3275L18 35.3425L18.1667 36.3475L13.1667 40.3675L13 42.0425L16.1667 46.7325L26.1667 46.565L29.6667 42.545V38.3575L24 35.845L23.3333 34.6725L20.5 23.6175L13.6667 22.11L5.83333 14.405L22.8333 19.9325L25.8333 29.6475H35.1667L38.1667 19.9325L55.1667 14.405L47.1667 22.2775L40.5 23.6175L37.6667 34.6725L37 35.845L31.3333 38.3575L31.1667 42.545L34.6667 46.565L44.8333 46.7325L48 42.0425L47.8333 40.3675L42.8333 36.3475L43 35.3425L51.1667 32.495L60 21.2725L51.5 0L30.5 6.03L9.5 0Z" fill="#75D0ED"/>
<path d="M19.6667 50.4175L30.5 46.3975L41.8333 50.4175L42 59.7975L31.6667 66.33H30.1667L19.6667 59.7975V50.4175Z" fill="#75D0ED"/>
<path d="M8.5 0.669983L0 21.9425L8.66667 32.9975L17 36.0125L17.1667 37.0175L12.1667 41.0375L12 42.7125L15.1667 47.4025L25.1667 47.235L28.6667 43.215V39.0275L23 36.515L22.3333 35.3425L19.5 24.2875L12.6667 22.78L4.83333 15.075L21.8333 20.6025L24.8333 30.3175H34.1667L37.1667 20.6025L54.1667 15.075L46.1667 22.9475L39.5 24.2875L36.6667 35.3425L36 36.515L30.3333 39.0275L30.1667 43.215L33.6667 47.235L43.8333 47.4025L47 42.7125L46.8333 41.0375L41.8333 37.0175L42 36.0125L50.1667 33.165L59 21.9425L50.5 0.669983L29.5 6.69998L8.5 0.669983Z" fill="white"/>
<path d="M18.6667 51.0875L29.5 47.0675L40.8333 51.0875L41 60.4675L30.6667 67H29.1667L18.6667 60.4675V51.0875Z" fill="white"/>
</svg>
